<?xml version="1.0" encoding="UTF-8"?>
<svg id="R_Icon_Logo" xmlns="http://www.w3.org/2000/svg" version="1.1" viewBox="0 0 365.79 296.89">
  <!-- Generator: Adobe Illustrator 30.3.0, SVG Export Plug-In . SVG Version: 2.1.3 Build 182)  -->
  <defs>
    <style>
      .st0 {
        fill: #e12427;
      }
    </style>
  </defs>
  <polygon class="st0" points="182.09 294.68 66.68 295.38 .89 229.81 1.2 113.79 182.09 294.68"/>
  <polygon class="st0" points=".89 1.16 221.07 .76 24.89 68.02 .89 43.16 .89 1.16"/>
  <path class="st0" d="M221.07,68.02H24.89L221.07.76l.65.87c14.79,19.74,14.53,46.94-.65,66.39h0Z"/>
  <polyline class="st0" points="221.07 .76 24.89 68.02 .89 43.16"/>
  <polygon class="st0" points="363.14 295.38 255.46 295.38 94.75 134.88 258.68 189.84 363.14 295.38"/>
  <path class="st0" d="M221.55,141.5c-.44-.57-.84-1.19-1.06-1.88-.65-2.05-41.85-4.74,2.06-6.06,2.2-.07,4.33-.87,6.4-1.62l4.5-1.88c.85-.36,1.47-1.04,2.19-1.61,6.81-5.46,14.75-14.94,14.76-25.11,0-12.18-2.24-14.91-5.54-21.97-1.18-2.54-4.98-5.46-11.09-8.84-4.33-2.39-10.45-4.5-12.7-4.5V.76s18.75,0,18.75,0c91.7,5.28,109.77,156.37,18.75,188.33l-37.02-47.59Z"/>
  <path class="st0" d="M261.46,184.39l-2.78,5.45-163.93-54.96h126.32c29.26-8.08,54.18,22.47,40.39,49.51Z"/>
  <rect class="st0" x="185.55" y="144.52" width=".32" height="0"/>
  <path class="st0" d="M214.02,133.56h-121.2l8.58,7.96h107.81l46.89-22.71c8.2-36.96-8.42,19.35-42.09,14.75Z"/>
</svg>